- 
http://www.Speed.Cd 
       
http://www.Speed.Cd       the fast  and The Hottest Private Tracker on the net

(((--Registration will be open on june every weekend--)))

Please Seed back to make the speed Faster!!!

------------------nfo--------------------------
-
                                                     
                                                   
                                                         
                                                          
                                                           
                                                          
                                                          
                                                          
                                                           
                                                         
                                                          
                                                        
                                                      
                                     
                                                 
                                                   
                                             
                                              
                                                     
                                                      
                                                      
                                                      
                                                    
                                                     
                                                   
                                                     
                                                     
                                                      
                                                     
                                                      
                                                    
                 ARTiCHOKE                        
                                                
                      
                                                        
                                                      
                                                      
                                               
                                          
                                                   
                                            
                                                    
                                                       
                                                        
                                                      
                                                
                                                        
                                                 
                                              
                                                  
                                                
                                                  
                                        

      
                                
      SPRiNTER proudly presents...     
                                
      
 
 Vanishing.Wilderness.1974.DVDRip.XviD-SPRiNTER  http://www.imdb.com/title/tt0181123/
 Subtitles: N/A

 Date: 1974

 Genre: Documentary

      
                 
      Release notes     
                 
      

 Enjoy!


      
           
     Greetings    
           
      


NTX aAF FiCO HNR CiNEFiLE AEN HUMANiSM TASTE 0MNiDVD


      
           
      Details     
           
      

Format                           : AVI                                                                   
Format/Info                      : Audio Video Interleave                                                
File size                        : 697 MiB                                                               
Duration                         : 1h 30mn                                                               
Overall bit rate                 : 1 074 Kbps                                                            
Writing application              : VirtualDubMod 1.5.10.3 | www.virtualdub-fr.org || (build 2550/release)
Writing library                  : VirtualDubMod build 2550/release                                      
                                                                                                         
Video                                                                                                    
ID                               : 0                                                                     
Format                           : MPEG-4 Visual                                                         
Format profile                   : Advanced Simple@L5                                                    
Format settings, BVOP            : 2                                                                     
Format settings, QPel            : No                                                                    
Format settings, GMC             : No warppoints                                                         
Format settings, Matrix          : Default (H.263)                                                       
Muxing mode                      : Packed bitstream                                                      
Codec ID                         : XVID                                                                  
Codec ID/Hint                    : XviD                                                                  
Duration                         : 1h 30mn                                                               
Bit rate                         : 984 Kbps                                                              
Width                            : 576 pixels                                                            
Height                           : 432 pixels                                                            
Display aspect ratio             : 4:3                                                                   
Frame rate                       : 23.976 fps                                                            
Color space                      : YUV                                                                   
Chroma subsampling               : 4:2:0                                                                 
Bit depth                        : 8 bits                                                                
Scan type                        : Progressive                                                           
Compression mode                 : Lossy                                                                 
Bits/(Pixel*Frame)               : 0.165                                                                 
Stream size                      : 639 MiB (92%)                                                         
Writing library                  : XviD 1.2.1 (UTC 2008-12-04)                                           
                                                                                                         
Audio                                                                                                    
ID                               : 1                                                                     
Format                           : MPEG Audio                                                            
Format version                   : Version 1                                                             
Format profile                   : Layer 3                                                               
Codec ID                         : 55                                                                    
Codec ID/Hint                    : MP3                                                                   
Duration                         : 1h 30mn                                                               
Bit rate mode                    : Variable                                                              
Bit rate                         : 76.8 Kbps                                                             
Minimum bit rate                 : 32.0 Kbps                                                             
Channel(s)                       : 1 channel                                                             
Sampling rate                    : 48.0 KHz                                                              
Compression mode                 : Lossy                                                                 
Stream size                      : 49.8 MiB (7%)                                                         
Alignment                        : Aligned on interleaves                                                
Interleave, duration             : 24 ms (0.58 video frame)                                              
Interleave, preload duration     : 240 ms                                                                
Writing library                  : LAME3.95                                                              
Encoding settings                : -m m -V 4 -q 3 -lowpass 18 --vbr-old -b 32